name processed_emg_signals
nRows=49
nColumns=7
 
endheader
time	RGLTMED	RRF	RADDLONG	RST	RTA	RGM
0.0	0.3479158055322855	0.0114999105751038	0.0195010794388881	0.2480192003709624	0.0046595348863659	0.0407408020811423
0.001	0.3115738083811312	0.0150697222454592	0.0115591361616203	0.2590230062015293	0.0018705098442013	0.0523083734626084
0.002	0.2754221856812973	0.0186407321864363	0.0036408302650616	0.2700836592964546	0.0009002740623687	0.0638466216653428
0.003	0.239482578506671	0.0222108336603664	0.0042489248606637	0.2811941621989969	0.0036509213798906	0.0753481613977056
0.004	0.2037763807048218	0.0257779228320497	0.0121052392760364	0.2923474677569503	0.0063795596051824	0.0868056339817317
0.005	0.1683247105436021	0.0293399018649967	0.019923252990587	0.303536491124486	0.0090843421516668	0.0982117175929403
0.006	0.1331483829751246	0.032894681994151	0.0276981424053005	0.3147541216791505	0.0117634512709346	0.109559137441323
0.007	0.098267882580891	0.0364401865660264	0.0354251266850146	0.3259932347928985	0.0144151009214646	0.1208406758693689
0.008	0.0637033372596141	0.039974354037681	0.0430994740477197	0.3372467034037807	0.0170375395768315	0.1320491823440254
0.009000000000000001	0.0294744927162752	0.043495140927423	0.0507165079584547	0.3485074093430479	0.0196290529658914	0.1431775833202933
0.01	0.0043993121926962	0.0470005247105696	0.0582716132158906	0.3597682543805341	0.0221879667376684	0.1542188919550353
0.011	0.037899169208016	0.0504885066540409	0.0657602419208462	0.3710221709584858	0.0247126490439251	0.1651662176502799
0.012	0.0710066234645206	0.0539571145841311	0.0731779193164497	0.3822621325892326	0.0272015130327506	0.1760127754059525
0.013000000000000001	0.1037036952961512	0.0574044055815588	0.0805202494903903	0.3934811638953692	0.0296530192470119	0.1867518949625339
0.014	0.1359729010128786	0.0608284685988036	0.0877829209307288	0.4046723502724707	0.0320656779220544	0.1973770297149309
0.015	0.1677972726178558	0.0642274269947322	0.0949617119268103	0.4158288471547139	0.0344380511777704	0.207881765379686
0.016	0.199160376437246	0.0675994409823129	0.1020524958082339	0.426943888863812	0.0367687551007868	0.2182598283983322
0.017	0.2300463306395483	0.0709427099853553	0.1090512460141283	0.4380107970211907	0.0390564617131642	0.2285050940603168
0.018000000000000002	0.2604398216259958	0.0742554749005135	0.1159540409863201	0.4490229885034341	0.041299900824473	0.2386115943292723
0.019	0.2903261192785332	0.0775360202613358	0.1227570688797239	0.459973982921623	0.0434978617644752	0.248573525356782
0.02	0.3196910910561779	0.0807826763011792	0.1294566320841127	0.4708574096078217	0.0456491949939149	0.2583852546683896
0.021	0.348521214934522	0.0839938209123815	0.1360491515524157	0.4816670140953361	0.0477528135911756	0.2680413280075402
0.022	0.3768035911863286	0.0871678814996781	0.1425311709307519	0.4923966640837041	0.0498076946128216	0.2775364758249797
0.023	0.404525953003576	0.090303336725932	0.1488993604865191	0.5030403548834526	0.0518128803263831	0.2868656194034074
0.024	0.4316766759627338	0.0933987181491068	0.1551505208309799	0.5135922143397489	0.0537674793141734	0.2960238766097646
0.025	0.4582447863361837	0.0964526117493025	0.1612815864324663	0.5240465072382815	0.0556706674473636	0.3050065672695868
0.026000000000000002	0.4842199682543686	0.0994636593455327	0.1672896289172912	0.5343976392004766	0.0575216887299681	0.3138092181595646
0.027	0.5095925697260063	0.1024305599016862	0.1731718601548221	0.5446401600783263	0.0593198560128018	0.3224275676157197
0.028	0.5343536075270648	0.1053520707222408	0.1789256351243554	0.5547687668610788	0.0610645515778683	0.3308575697557398
0.029	0.558494770972749	0.1082270085379327	0.1845484545616929	0.5647783061075061	0.0627552275941213	0.3390953983148183
0.03	0.5820084245900164	0.1110542504825614	0.1900379673838842	0.5746637759187083	0.0643914064458936	0.3471374500954354
0.031	0.6048876097110332	0.1138327349617333	0.1953919728910718	0.5844203274681078	0.065972680935646	0.3549803480326485
0.032	0.6271260450102636	0.1165614624149272	0.2006084227442496	0.594043266106884	0.0674987143631688	0.3626209438780033
0.033	0.6487181260094138	0.1192394959717604	0.2056854227180958	0.6035280520649103	0.0689692404838185	0.3700563205065728
0.034	0.66965892357551	0.1218659620040852	0.210621234228157	0.6128703007686687	0.0703840633488065	0.3772837938528374
0.035	0.689944181437858	0.1244400505749331	0.2154142756315447	0.6220657827990992	0.0717430570309339	0.3843009144821607
0.036000000000000004	0.7095703127500576	0.1269610157860665	0.2200631233010971	0.6311104235138231	0.0730461652394384	0.3911054688050059
0.037	0.7285343957232832	0.1294281760255184	0.2245665124726316	0.6400003023591634	0.0742934008278539	0.397695479941207
0.038	0.7468341683577734	0.1318409141164408	0.2289233378654236	0.6487316518984781	0.0754848451989547	0.4040692082412609
0.039	0.7644680223002801	0.1341986773688137	0.2331326540766466	0.6573008565840172	0.0766206476109247	0.4102251514713247
0.04	0.7814349958561619	0.1365009775352934	0.2371936757497589	0.6657044512999764	0.0777010243889556	0.4161620446683481
0.041	0.7977347661850456	0.1387473906727291	0.2411057775173635	0.6739391197043224	0.0787262580464783	0.4218788596715535
0.042	0.813367640708804	0.1409375569108954	0.2448684937182699	0.6820016923966884	0.0796966963201901	0.4273748043363494
0.043000000000000003	0.8283345477595627	0.1430711801305386	0.2484815178884722	0.6898891449391156	0.0806127511229656	0.4326493214365943
0.044	0.8426370264941854	0.1451480275526354	0.2519447020253087	0.6975985957560069	0.0814748974186252	0.4377020872607913
0.045	0.8562772161002549	0.147167929241147	0.2552580556239002	0.705127303938529	0.0822836720224198	0.4425330099074914
0.046	0.869257844317316	0.1491307775214237	0.2584217444852825	0.7124726669771883	0.0830396723309074	0.4471422272849846
0.047	0.8815822152965733	0.1510365263163281	0.2614360892962171	0.7196322184445078	0.0837435549847507	0.4515301048203993
0.048	0.8932541968221327	0.1528851904021883	0.2643015639813268	0.7266036256483163	0.0843960344678039	0.4556972328833811
